<?xml version="1.0" encoding="utf-8"?>
<!-- Generator: Adobe Illustrator 22.0.1, SVG Export Plug-In . SVG Version: 6.00 Build 0)  -->
<!DOCTYPE svg PUBLIC "-//W3C//DTD SVG 1.1//EN" "http://www.w3.org/Graphics/SVG/1.1/DTD/svg11.dtd">
<svg version="1.1" id="Layer_1" xmlns="http://www.w3.org/2000/svg" xmlns:xlink="http://www.w3.org/1999/xlink" x="0px" y="0px"
	 viewBox="0 0 68.7 68.8" enable-background="new 0 0 68.7 68.8" xml:space="preserve">
<path fill="#FFFFFF" d="M60.7,34.5c0,1.1-0.9,2-2,2H32.2V10.1c0-1.1,0.9-2,2-2c1.1,0,2,0.9,2,2v22.4h22.4
	C59.8,32.5,60.7,33.4,60.7,34.5z M68.7,34.4c0,19-15.4,34.4-34.4,34.4S0,53.3,0,34.4C0,15.4,15.4,0,34.4,0S68.7,15.4,68.7,34.4z
	 M64.7,34.4C64.7,17.6,51.1,4,34.4,4S4,17.6,4,34.4c0,16.7,13.6,30.4,30.4,30.4S64.7,51.1,64.7,34.4z"/>
</svg>
